<svg clip-rule="evenodd" fill-rule="evenodd" stroke-linejoin="round" stroke-miterlimit="2" viewBox="0 0 1499 245" xmlns="http://www.w3.org/2000/svg" xmlns:xlink="http://www.w3.org/1999/xlink"><clipPath id="a"><path clip-rule="evenodd" d="m0-0h2625.42v244.167h-2625.42z"/></clipPath><g transform="scale(.57082 1)"><path d="m0-0h2625.42v244.167h-2625.42z" fill="none"/><g clip-path="url(#a)"><g fill-rule="nonzero" transform="matrix(1.75186 0 0 1 -2105.93 -659.908)"><path d="m1365.86 801.325v103.75h-65c-.97-2.084-1.46-4.862-1.46-8.334s.49-6.25 1.46-8.333h48.33v-87.083zm0 25.416h-16.67v-87.5h16.67zm-163.75-26.25.42-139.583h163.33v105h-16.67v-89.167h-32.5s-3.3.972-9.89 2.917c-6.6 1.944-14.76 4.375-24.48 7.292-9.73 2.916-19.45 5.833-29.17 8.75-9.72 2.916-17.88 5.347-24.48 7.291-6.6 1.945-9.89 2.917-9.89 2.917v94.583zm100 104.584h-100v-172.5h16.67v66.25s1.9-.313 5.72-.938 8.23-1.354 13.23-2.187c5-.834 9.41-1.563 13.23-2.188s5.73-.937 5.73-.937v95.833h45.42z"/><path d="m1628.36 826.741h-16.67v-87.5h16.67zm-279.17 0v-87.5h16.67v87.5zm139.59-165.833c.27 3.333.52 6.771.72 10.312.21 3.542.35 7.153.42 10.834.07 3.68.11 7.361.11 11.041 0 3.681-.11 7.292-.32 10.834-.21 3.541-.52 6.979-.93 10.312h-2.5s-.84-1.25-2.5-3.75c-1.67-2.5-3.75-5.555-6.25-9.166-2.5-3.612-5-7.223-7.5-10.834s-4.59-6.666-6.25-9.166c-1.67-2.5-2.5-3.75-2.5-3.75h-95.42v99.583h-16.67v-116.25zm-139.59 123.75h16.67v103.75h127.08v16.667h-143.75zm279.17 0v120.417h-143.75v-16.667h127.08v-103.75zm-139.58-123.75h139.58v116.25h-16.67v-99.583h-95.41s-.84 1.25-2.5 3.75c-1.67 2.5-3.75 5.555-6.25 9.166s-5 7.222-7.5 10.834c-2.5 3.611-4.59 6.666-6.25 9.166-1.67 2.5-2.5 3.75-2.5 3.75h-2.5c-.42-3.333-.73-6.771-.94-10.312-.21-3.542-.31-7.153-.31-10.834 0-3.68.03-7.361.1-11.041.07-3.681.21-7.292.42-10.834.2-3.541.45-6.979.73-10.312zm-20 227.5-5.84 7.5-10.41-7.5s-.53-2.431-1.57-7.292-2.39-11.146-4.06-18.854-3.47-15.868-5.42-24.479c-1.94-8.611-3.75-16.771-5.41-24.479-1.67-7.709-3.02-13.993-4.07-18.854-1.04-4.862-1.56-7.292-1.56-7.292l15.42-3.75s.55 2.535 1.67 7.604c1.11 5.07 2.53 11.597 4.27 19.583 1.73 7.987 3.57 16.424 5.52 25.313 1.94 8.889 3.78 17.326 5.52 25.312 1.73 7.987 3.16 14.514 4.27 19.584 1.11 5.069 1.67 7.604 1.67 7.604zm40.41 0s.56-2.535 1.67-7.604c1.11-5.07 2.53-11.597 4.27-19.584 1.74-7.986 3.57-16.423 5.52-25.312 1.94-8.889 3.78-17.326 5.52-25.313 1.74-7.986 3.16-14.513 4.27-19.583 1.11-5.069 1.67-7.604 1.67-7.604l15.42 3.75s-.53 2.43-1.57 7.292c-1.04 4.861-2.39 11.145-4.06 18.854-1.67 7.708-3.47 15.868-5.42 24.479-1.94 8.611-3.75 16.771-5.41 24.479-1.67 7.708-3.02 13.993-4.07 18.854-1.04 4.861-1.56 7.292-1.56 7.292l-10.41 7.5z"/><path d="m1611.69 826.741v-87.5h16.67v87.5zm237.5-37.916v116.25h-121.66v-16.667h71.25c.41 0 1.8-1.042 4.16-3.125s5.21-4.722 8.54-7.917c3.34-3.194 6.6-6.423 9.8-9.687 3.19-3.264 5.86-6.077 8.02-8.438 2.15-2.361 3.23-3.75 3.23-4.166v-66.25zm0-11.667h-16.66v-66.25c0-.417-1.08-1.806-3.23-4.167-2.16-2.361-4.83-5.173-8.02-8.437-3.2-3.264-6.46-6.493-9.8-9.688-3.33-3.194-6.18-5.833-8.54-7.916-2.36-2.084-3.75-3.125-4.16-3.125h-71.25v-16.667h121.66zm-45.83 10s1.46-1.181 4.37-3.542c2.92-2.361 6.32-5.139 10.21-8.333 3.89-3.195 7.29-5.972 10.21-8.333 2.92-2.362 4.38-3.542 4.38-3.542v-20.833h16.66v89.166h-16.66v-20.833s-1.46-1.181-4.38-3.542-6.32-5.139-10.21-8.333c-3.89-3.195-7.29-5.972-10.21-8.333-2.91-2.362-4.37-3.542-4.37-3.542zm-191.67 1.667h16.67v99.583h105v16.667h-121.67zm0-11.667v-116.25h121.67v16.667h-105v99.583zm145.84-36.25c.83 0 1.31.069 1.45.208s.21.625.21 1.459v13.333c0 .833-.07 1.319-.21 1.458s-.62.209-1.45.209h-51.67c-.83 0-1.32-.07-1.46-.209s-.21-.625-.21-1.458v-13.333c0-.834.07-1.32.21-1.459s.63-.208 1.46-.208zm0 84.167h-51.67c-.83 0-1.32-.07-1.46-.209s-.21-.625-.21-1.458v-13.333c0-.834.07-1.32.21-1.459s.63-.208 1.46-.208h51.67c.83 0 1.31.069 1.45.208s.21.625.21 1.459v13.333c0 .833-.07 1.319-.21 1.458s-.62.209-1.45.209z"/><path d="m2070.03 851.741h-16.67v-95.833h16.67zm0-62.916v116.25h-121.67v-16.667h71.25c.42 0 1.8-1.042 4.17-3.125 2.36-2.083 5.2-4.722 8.54-7.917 3.33-3.194 6.59-6.423 9.79-9.687 3.19-3.264 5.87-6.077 8.02-8.438s3.23-3.75 3.23-4.166v-66.25zm0 30.833h-16.67v-66.25c0-.417-1.08-1.806-3.23-4.167s-4.83-5.173-8.02-8.437c-3.2-3.264-6.46-6.493-9.79-9.688-3.34-3.194-6.18-5.833-8.54-7.916-2.37-2.084-3.75-3.125-4.17-3.125h-71.25v-16.667h121.67zm-127.09 10v-51.667c0-.833.07-1.319.21-1.458s.63-.208 1.46-.208h13.33c.84 0 1.32.069 1.46.208s.21.625.21 1.458v51.667c0 .833-.07 1.319-.21 1.458s-.62.209-1.46.209h-13.33c-.83 0-1.32-.07-1.46-.209s-.21-.625-.21-1.458zm-110.41 22.083v-95.833h16.66v95.833zm0-62.916h16.66v66.25c0 .416 1.08 1.805 3.23 4.166s4.83 5.174 8.02 8.438c3.2 3.264 6.46 6.493 9.79 9.687 3.34 3.195 6.18 5.834 8.55 7.917 2.36 2.083 3.75 3.125 4.16 3.125h71.25v16.667h-121.66zm0 30.833v-116.25h121.66v16.667h-71.25c-.41 0-1.8 1.041-4.16 3.125-2.37 2.083-5.21 4.722-8.55 7.916-3.33 3.195-6.59 6.424-9.79 9.688-3.19 3.264-5.87 6.076-8.02 8.437s-3.23 3.75-3.23 4.167v66.25z"/><path d="m2290.44 819.658h-16.66v-99.583h-105v-16.667h121.66zm-237.08 0v-116.25h121.67v16.667h-105v99.583zm0-30.833h16.67v99.583h105v16.667h-121.67zm237.5 0v116.25h-121.67v-16.667h105v-99.583zm-112.08 42.5v56.77c0 .209-.08.382-.21.521-.14.139-.32.209-.52.209h-15.21c-.21 0-.39-.07-.52-.209-.14-.139-.21-.312-.21-.521v-56.77c0-.556.03-.938.1-1.146.07-.209.21-.347.42-.417.21-.069.59-.104 1.15-.104h13.33c.55 0 .94.035 1.14.104.21.07.35.208.42.417.07.208.11.59.11 1.146zm0-56.667c0 .555-.04.937-.11 1.146-.07.208-.21.347-.42.416-.2.07-.59.105-1.14.105h-13.33c-.56 0-.94-.035-1.15-.105-.21-.069-.35-.208-.42-.416-.07-.209-.1-.591-.1-1.146v-56.771c0-.208.07-.382.21-.521.13-.139.31-.208.52-.208h15.21c.2 0 .38.069.52.208.13.139.21.313.21.521zm-109.17 50c-.97-5-1.74-9.41-2.29-13.229-.56-3.82-.84-7.361-.84-10.625s.28-6.667.84-10.209c.55-3.541 1.32-7.465 2.29-11.77 0 0 1.49.798 4.48 2.395 2.98 1.598 6.7 3.542 11.14 5.834 4.45 2.291 8.89 4.583 13.34 6.875 4.44 2.291 8.16 4.236 11.14 5.833 2.99 1.597 4.48 2.396 4.48 2.396s-1.49.764-4.48 2.292c-2.98 1.527-6.7 3.402-11.14 5.625-4.45 2.222-8.89 4.444-13.34 6.666-4.44 2.222-8.16 4.097-11.14 5.625-2.99 1.528-4.48 2.292-4.48 2.292zm204.58 0s-1.49-.764-4.48-2.292c-2.98-1.528-6.7-3.403-11.14-5.625-4.45-2.222-8.89-4.444-13.34-6.666-4.44-2.223-8.16-4.098-11.14-5.625-2.99-1.528-4.48-2.292-4.48-2.292s1.49-.799 4.48-2.396c2.98-1.597 6.7-3.542 11.14-5.833 4.45-2.292 8.89-4.584 13.34-6.875 4.44-2.292 8.16-4.236 11.14-5.834 2.99-1.597 4.48-2.395 4.48-2.395 1.11 4.305 1.91 8.229 2.4 11.77.48 3.542.73 6.945.73 10.209s-.25 6.805-.73 10.625c-.49 3.819-1.29 8.229-2.4 13.229z"/><path d="m2274.19 819.658v-116.25h113.34v16.667h-62.92c-.42 0-1.81 1.041-4.17 3.125-2.36 2.083-5.21 4.722-8.54 7.916-3.33 3.195-6.6 6.424-9.79 9.688-3.2 3.264-5.87 6.076-8.02 8.437-2.16 2.361-3.23 3.75-3.23 4.167v66.25zm0-63.333h16.67v95.833h-16.67zm0 32.5h16.67v66.25c0 .416 1.07 1.805 3.23 4.166 2.15 2.361 4.82 5.174 8.02 8.438 3.19 3.264 6.46 6.493 9.79 9.687 3.33 3.195 6.18 5.834 8.54 7.917s3.75 3.125 4.17 3.125h62.92v16.667h-113.34zm221.67 30.833h-16.67v-66.25c0-.417-1.07-1.806-3.23-4.167-2.15-2.361-4.82-5.173-8.02-8.437-3.19-3.264-6.46-6.493-9.79-9.688-3.33-3.194-6.18-5.833-8.54-7.916-2.36-2.084-3.75-3.125-4.17-3.125h-62.91v-16.667h113.33zm0-18.333v103.75h-113.33v-16.667h96.66v-87.083zm-84.17-30c.84 0 1.32.069 1.46.208s.21.625.21 1.458v13.334c0 .833-.07 1.319-.21 1.458s-.62.208-1.46.208h-51.66c-.84 0-1.33-.069-1.46-.208-.14-.139-.21-.625-.21-1.458v-13.334c0-.833.07-1.319.21-1.458.13-.139.62-.208 1.46-.208zm75.42 65.833h-7.92v-5.833s-2.81.416-8.44 1.25c-5.62.833-12.57 1.84-20.83 3.02-8.26 1.181-16.53 2.362-24.79 3.542-8.26 1.181-15.21 2.188-20.83 3.021-5.63.833-8.44 1.25-8.44 1.25s-.04-.278-.11-.833c-.07-.556-.2-1.424-.41-2.605-.21-1.18-.45-2.673-.73-4.479-.28-1.805-.52-3.333-.73-4.583s-.35-2.188-.42-2.813-.1-.937-.1-.937 2.88-.417 8.64-1.25c5.77-.833 12.92-1.875 21.46-3.125s17.09-2.5 25.63-3.75 15.69-2.292 21.46-3.125c5.76-.833 8.64-1.25 8.64-1.25v-7.917h7.92z"/><path d="m2700.86 788.825v116.25h-113.33v-16.667h62.91c.42 0 1.81-1.042 4.17-3.125s5.21-4.722 8.54-7.917c3.33-3.194 6.6-6.423 9.79-9.687 3.2-3.264 5.87-6.077 8.02-8.438 2.16-2.361 3.23-3.75 3.23-4.166v-66.25zm-221.67 30.833v-116.25h113.34v16.667h-62.92c-.42 0-1.81 1.041-4.17 3.125-2.36 2.083-5.21 4.722-8.54 7.916-3.33 3.195-6.6 6.424-9.79 9.688-3.2 3.264-5.87 6.076-8.02 8.437-2.16 2.361-3.23 3.75-3.23 4.167v66.25zm221.67-12.5h-16.67v-87.083h-96.66v-16.667h113.33zm-221.67-5.833h16.67v87.083h96.67v16.667h-113.34zm8.34 32.916v-30.416h7.91v7.916s2.88.417 8.65 1.25c5.76.834 12.91 1.875 21.46 3.125l25.62 3.75c8.54 1.25 15.7 2.292 21.46 3.125 5.76.834 8.65 1.25 8.65 1.25s-.04.313-.11.938-.21 1.562-.42 2.812c-.2 1.25-.45 2.778-.72 4.584-.28 1.805-.53 3.298-.73 4.479-.21 1.18-.35 2.048-.42 2.604-.07.555-.1.833-.1.833s-2.82-.416-8.44-1.25c-5.63-.833-12.57-1.84-20.84-3.021-8.26-1.18-16.52-2.361-24.79-3.541-8.26-1.181-15.21-2.188-20.83-3.021-5.63-.833-8.44-1.25-8.44-1.25v5.833zm205.41-56.25v30.417h-7.91v-7.917s-2.89-.416-8.65-1.25c-5.76-.833-12.92-1.875-21.46-3.125s-17.08-2.5-25.62-3.75c-8.55-1.25-15.7-2.291-21.46-3.125-5.77-.833-8.65-1.25-8.65-1.25s.04-.312.11-.937.2-1.563.41-2.813.45-2.778.73-4.583c.28-1.806.52-3.299.73-4.479.21-1.181.35-2.049.42-2.604.07-.556.1-.834.1-.834s2.81.417 8.44 1.25c5.62.834 12.57 1.841 20.83 3.021 8.27 1.181 16.53 2.361 24.79 3.542 8.27 1.18 15.21 2.187 20.84 3.021 5.62.833 8.44 1.25 8.44 1.25v-5.834z"/></g></g></g></svg>